<svg width="47" height="49" viewBox="0 0 47 49" fill="none" xmlns="http://www.w3.org/2000/svg">
<path d="M34.8036 45.1032L22.3002 26.9369L20.5197 24.351L6.01099 3.27117H12.252L23.9853 20.3189L25.7657 22.9049L41.0445 45.1032H34.8036ZM43.6246 43.3287L27.8765 20.4499L26.0961 17.8623L14.8309 1.49628L13.8972 0.139995H0.0546875L3.43065 5.04566L18.409 26.8088L20.1895 29.3935L32.2243 46.8797L33.1581 48.2344H47.0007L43.6246 43.3287Z" fill="black"/>
<path d="M20.5191 24.351L22.2996 26.9369L20.1889 29.3935L3.99365 48.2344H0L18.4083 26.8088L20.5191 24.351Z" fill="black"/>
<path d="M45.3332 0.139408L27.8756 20.4493L25.7648 22.9043L23.9844 20.3183L26.0952 17.8617L37.9207 4.09749L41.3395 0.139408H45.3332Z" fill="black"/>
</svg>
